<svg width="163" height="144" viewBox="0 0 163 144" fill="none" xmlns="http://www.w3.org/2000/svg">
<path d="M14.051 76.228C9.89571 72.1699 6.59377 67.3219 4.33938 61.9691C2.08499 56.6162 0.923645 50.8666 0.923645 45.0585C0.923645 39.2503 2.08499 33.5008 4.33938 28.1479C6.59377 22.7951 9.89571 17.9471 14.051 13.889C22.5222 5.61363 33.8946 0.980713 45.737 0.980713C57.5794 0.980713 68.9519 5.61363 77.423 13.889C79.0658 15.532 80.5784 17.3004 81.947 19.178C83.3181 17.3003 84.8329 15.532 86.478 13.889C94.949 5.61369 106.321 0.980835 118.163 0.980835C130.006 0.980835 141.378 5.61369 149.849 13.889C154.003 17.948 157.303 22.7964 159.557 28.149C161.81 33.5017 162.971 39.2508 162.971 45.0585C162.971 50.8661 161.81 56.6153 159.557 61.968C157.303 67.3206 154.003 72.169 149.849 76.228L81.949 143.028L14.051 76.228ZM23.1 22.8C20.1331 25.6998 17.7757 29.1633 16.1662 32.9869C14.5568 36.8106 13.7277 40.9174 13.7277 45.066C13.7277 49.2146 14.5568 53.3214 16.1662 57.1451C17.7757 60.9688 20.1331 64.4322 23.1 67.332C26.329 70.502 81.947 125.22 81.947 125.22C81.947 125.22 137.572 70.5 140.8 67.328C143.767 64.4281 146.124 60.9646 147.733 57.1409C149.342 53.3173 150.171 49.2105 150.171 45.062C150.171 40.9135 149.342 36.8068 147.733 32.9831C146.124 29.1594 143.767 25.6959 140.8 22.796C134.748 16.8854 126.625 13.5764 118.165 13.5764C109.706 13.5764 101.583 16.8854 95.531 22.796L81.952 36.154C81.952 36.154 71.364 25.733 68.372 22.796C62.3207 16.8855 54.1974 13.5765 45.7385 13.5765C37.2796 13.5765 29.1563 16.8855 23.105 22.796L23.1 22.8ZM125.288 56.963C126.543 55.7386 127.54 54.2752 128.221 52.6592C128.902 51.0433 129.252 49.3075 129.251 47.554C129.221 43.9958 127.78 40.5951 125.243 38.0998C122.706 35.6045 119.282 34.219 115.724 34.248V27.594C121.061 27.5519 126.196 29.6306 130.001 33.3733C133.805 37.1159 135.968 42.2162 136.014 47.553C136.013 50.1824 135.487 52.7853 134.466 55.2086C133.446 57.6318 131.951 59.8266 130.07 61.664L125.288 56.963Z" fill="#E3D5B8"/>
</svg>
