<svg width="150" height="150" viewBox="0 0 150 150" fill="none" xmlns="http://www.w3.org/2000/svg">
<path d="M0 75C0 60.1664 4.39866 45.6659 12.6398 33.3322C20.8809 20.9985 32.5943 11.3856 46.2988 5.70902C60.0032 0.0324454 75.0831 -1.45282 89.6317 1.44107C104.18 4.33496 117.544 11.478 128.033 21.967C138.522 32.4559 145.665 45.8196 148.559 60.3682C151.453 74.9168 149.968 89.9967 144.291 103.701C138.614 117.406 129.001 129.119 116.668 137.36C104.334 145.601 89.8336 150 75 150C55.1088 150 36.0322 142.098 21.967 128.033C7.90175 113.968 0 94.8912 0 75ZM81.249 131.25V137.185C95.5922 135.74 108.995 129.383 119.188 119.189C129.382 108.996 135.738 95.5922 137.182 81.249H131.249C129.591 81.249 128.002 80.5905 126.83 79.4184C125.657 78.2463 124.999 76.6566 124.999 74.999C124.999 73.3414 125.657 71.7517 126.83 70.5796C128.002 69.4075 129.591 68.749 131.249 68.749H137.182C135.738 54.4058 129.382 41.0023 119.188 30.8086C108.995 20.6149 95.5922 14.2574 81.249 12.813V18.748C81.249 20.4056 80.5905 21.9953 79.4184 23.1674C78.2463 24.3395 76.6566 24.998 74.999 24.998C73.3414 24.998 71.7517 24.3395 70.5796 23.1674C69.4075 21.9953 68.749 20.4056 68.749 18.748V12.813C54.4061 14.2578 41.0034 20.6155 30.8104 30.8091C20.6175 41.0028 14.2609 54.406 12.817 68.749H18.75C20.4076 68.749 21.9973 69.4075 23.1694 70.5796C24.3415 71.7517 25 73.3414 25 74.999C25 76.6566 24.3415 78.2463 23.1694 79.4184C21.9973 80.5905 20.4076 81.249 18.75 81.249H12.817C14.2609 95.592 20.6175 108.995 30.8104 119.189C41.0034 129.383 54.4061 135.74 68.749 137.185V131.25C68.749 129.592 69.4075 128.003 70.5796 126.831C71.7517 125.658 73.3414 125 74.999 125C76.6566 125 78.2463 125.658 79.4184 126.831C80.5905 128.003 81.249 129.592 81.249 131.25ZM61.742 88.257L35.229 79.413L105.938 44.056L70.581 114.772L61.742 88.257ZM51.513 78.257L63.72 82.322L66.686 83.3109L67.669 86.2769L71.741 98.477L91.962 58.03L51.513 78.257Z" fill="#E3D5B8"/>
</svg>
